<svg width="58" height="66.667" fill="none" xmlns="http://www.w3.org/2000/svg"><path fill-rule="evenodd" clip-rule="evenodd" d="M37.434 56.755C49.337 53.142 58 42.082 58 29 58 12.984 45.016 0 29 0S0 12.984 0 29c0 13.083 8.663 24.142 20.566 27.755l6.834 9.112a2 2 0 0 0 3.2 0z" fill="#fff"/><path fill-rule="evenodd" clip-rule="evenodd" d="M29 55c14.36 0 26-11.64 26-26S43.36 3 29 3 3 14.64 3 29s11.64 26 26 26z" fill="#ffc400"/><mask id="a" mask-type="alpha" maskUnits="userSpaceOnUse" x="7" y="7" width="52" height="52"><path fill-rule="evenodd" clip-rule="evenodd" d="M33 59c14.36 0 26-11.64 26-26S47.36 7 33 7 7 18.64 7 33s11.64 26 26 26z" fill="#fff"/></mask><rect x="23.348" y="13.174" width="15.826" height="31.652" rx="7.794" fill="#3c4043" stroke="#3c4043" stroke-width="2.261"/><path fill-rule="evenodd" clip-rule="evenodd" d="M31.26 23.348a3.391 3.391 0 1 0 0-6.783 3.391 3.391 0 0 0 0 6.783z" fill="#ff5252"/><path fill-rule="evenodd" clip-rule="evenodd" d="M31.26 41.435a3.391 3.391 0 1 0 0-6.783 3.391 3.391 0 0 0 0 6.783z" fill="#1cc871"/><path fill-rule="evenodd" clip-rule="evenodd" d="M31.26 32.391a3.391 3.391 0 1 0 0-6.782 3.391 3.391 0 0 0 0 6.782z" fill="#ffc400"/><mask id="b" maskUnits="userSpaceOnUse" x="13.467" y="19.119" width="18" height="18" fill="#000"><path fill="#fff" d="M13.467 19.119h18v18h-18z"/><path fill-rule="evenodd" clip-rule="evenodd" d="M22.826 34.837a6.359 6.359 0 1 0 0-12.718 6.359 6.359 0 0 0 0 12.718z"/></mask><path fill-rule="evenodd" clip-rule="evenodd" d="M18.826 30.837a6.359 6.359 0 1 0 0-12.718 6.359 6.359 0 0 0 0 12.718z" fill="#ff5252"/><path clip-rule="evenodd" d="M22.826 34.837a6.359 6.359 0 1 0 0-12.718 6.359 6.359 0 0 0 0 12.718z" stroke="#a8010c" stroke-width="4.522" mask="url(#b)" transform="translate(-4 -4)"/><path fill-rule="evenodd" clip-rule="evenodd" d="M22.216 21.087a1.199 1.199 0 0 0-1.695 0l-1.696 1.696-1.744-1.745a1.13 1.13 0 1 0-1.599 1.599l1.745 1.744-1.793 1.793a1.2 1.2 0 0 0 1.696 1.695l1.792-1.792 1.744 1.744a1.13 1.13 0 0 0 1.599-1.599l-1.744-1.744 1.696-1.696a1.199 1.199 0 0 0 0-1.695z" fill="#fff"/></svg>